' Generated by UML Generator
' Encoded: tJrhS-F8ST-toly19N-1h8VbAyUvqFRcA8fQqQkNIMetYSl50e4XXHC8m7YiLZxVLNvBVbf-IRfx1eDvajpRFIVnbNqYPdfcUdhwFO_xfcwYgcatsQlwAStBg8esGPn5TJricYfTjWsRn4K-I__AWhDNZsd2WZYjueozUaLGmNdMigOeciTHaJTLaMMi2hvx5GGdtq77JHf_7yo7RmR133hBry7lWmD7WmE4Z-8c_P0sBuDWA7vXQScgJLhNQP5VHsqUFxAghv-okisQhlntV8W__VarjZk1VnqvXWhjOOw37pF88GvGiup5pGNxaCQi7kR936aP5lb5aRD1C6tpF5fcx70GV2ZI1D7A6KlgUpbS25NBeiXOb6DjnVxIihhHwxkczMFnp4UwIAEiM8S97tOGNATrypivLmxp-ZZOWaPR9b73pZlC_r0hGttVhUn3lJolYYY9exgvYl94hYpmGyC-DeDWn7zqPPp20spO4vo6gvTJ5hFq0zRAFhiYO8gSFTlbuM7mtSzU_Gmw289lxg2W0kxZdsMxpDAOy8LfYWQXG2U8ZuC9_CgR8AK_r4yW_W7a-Am3JZyOdKEThbbp7rKnov1OuuzD5OK0V1FbqPfLf-D_cq-7YulnkybeVFZRlZ_1sCXMHQvrDgIYK0LELq7O3GkpRhCi-DlVP5jUSjY3upyLQzegD_fGy1gEvfExsyN3x5mWjnZEvyFHrVZY5BWfokgGTt-eKG7_wPVibFC3fyiaNnK2IHNrxmEMrMptw1VZJnuT12j-6dy4BWPA2fRKoFOz_mb_lfUoxU3Eq6JCuy3BbYI-5Ll3eCXfKZIEsjmgLIN2r7Ajf0KD87wB6YJbd132VxzBsREAlgAKRCIThGbfDxMK2RZNSj1plW8CRDfZZRqeSr2dVL6XH7fLlC86z-FfpMGsWqzLwSV5vdITDe_jyZHFdzAoE6thkaXFzHPRxC1MEelrfnhnMoMqYRp31YZQN57ZKnObBqu5QcjgBvKb6Q-BECf0LnLLiij6Qg07FfrR2O11SCEIDEhWoMokaa70jTbbcW4tr76Lbar1bMdDGM4mQNvWr1M8AzEmggCFm49bsrocB4l0qipq0WsuhDWAGHwZYYNtyC4gbWDlofNG9XN6pKSv6Q8-j0VlWuNFQT8y3b2F7WUFB5q_Dk9ZLTRYrp85vTmm-W8opzfg5SMCbf1MJc7mkYbAzRk2DOvgfXOfv21sO8PLZYi6Wxq3urCWBUzN2LgNAeyo1FGHUTccMJ9ZtAierWXm6sseRxxE20JYTn6zpDhLAlqO9j6Bd167aAm3topQGD4uZml9FOn_YEKVmU-ObXSNID149GwWj895GPsWDZazbyNaPY05MQ9HeEw6rqfFVhfLIr2yMY8Mdt5o2NufstD1owYjcIIP3bot6tTLpPfpZc08tiYvZgkYBYSATKDb6dAjL8HfdOv07qVWzxo0nqMa9XoR-W48anN424TFx8KQM0J-GUqkJDHkm6zjH1V7mTDADZtiSHb1eohQrpCteRsA9oR02w7nHieNhot1PM62zxlwaLQAS8z_SJ5fvYpb8yuVOU601aB7yy--Mfe1nGO0Py6YJQDyZPum_laTIY_OZjS1zxSuAdTv1gu-ANN4c70LtnpW-YzRgjDwPea8TDzKhOBzACgoPHG_wHGx1MFJiAvE-C9-WBsTuhkIvIm9lxajyblqCzKk0uwGvfEfQmfOy4_51-DQK2oVzCw-tmkNYxG6Dih1k7uwHgTnLg1uVzA0uwegggqZ7QDa1mpXzXgqTpnDAR4jMTGqKVnuzSTEIzG6GoiAXODUxmFAbIJ7Rv9qSaiAridUYhTYh5rV4PLbzdAFCNyTai52wT7P6ym3bN-sVjNrDhSpN89jHvkq7UzcN-NbR7AWjKXp-9KZTPt0sxNTI8aaJ1OWlQLwDmFTsTDiwBYpsgPHHwXdKEZlsN9Mn4-iKTGOnFjhtkrwBNm7tc6d4djTcEPfaqPP-jUzZBZB5pJAEN_CMADxHMq5_bqpClXHKQhSFNql7GEe-jM_V7NMLrtrVWBMdNrDTLT_L8qlLFpJukpi3F_VpyBPAQzoTtfjTTftsNaeKCexMe8_ST_RPoW_-PN6I5VZuSLukfXD_cCi1mgEWg_tDpYeIKwSN6Yh4paiUH-SXNKeFqCV8JU4DPVyj-obMoP54A7Nkx99Dr5sAJI9GybutJi-tKj1maDpoiGfBt76EZwn_D-hg4gUmOESjMLPeESvPNMHjPGwiV60kEkzWWfyAkkDNGFR4o-mveyj247JQJTJaRfqr4bIHMakf54j9zLu7w5CXYlkffd2UwhwQHW_W9lsfpyBnz8G9R-phBh8gkiCyqGgwCuepKDs7JfXTiGsHmteaup7Dk47_BUizGtA6eBkV6KTOsSJFWPd07KTHe_8AaGm2gW-G42rKhzkQhEhc9e80tLPL9kesIVoSA45EeWp0WoLnimqLSCi4pMrRPwkO9JB-zcdUTTQeo_hMXUW5P1rMOA3p4h6aly_xZPchqKEM_SyNXkEztR07IxuOqSOr12zdlZ7ySpbol_3k-ZW0vso4AJhk0jPET0WE00ZpE5_-oaUlKUS_rwElMhVLVcDbYaOi1GKa8h8SM1QHUZAsOnycpHFpa54983FmDTIBFQnwTvWP6itUZXYCwmHbqY0_uC1YfFWFDjJTuwCPcYHCBNGEwOT-H7HZcYvRxopRI2V9NfqIyN0P_r--Y1eTyX1BemU77p50m2gqME3V_xA7MzyhSORsm87dS6XxZTdMqoD9_xoH6k-k6ol6CGNmFX2Hef6jl78ZmjATd3T7h69fRwGc0wrKz9sGyKIDJYGXSuGuUyU1kpXhN-oDwwvraulLm--F1AancJeuSyvOz_FmXqXo1VqntTkmsptrpypiFZKi4Qgy4sz9ewen8uag6rPzuvLoDeZtB3TfT1rs0FfcqXuslRj5b10zm8GBz4iSaTKMNtPUiKQy4PWHdNNLW_4UvjHtx9dLdL06JLHnk7ZAupJhH3C6ey-a7CZKQ4v_u0RgNY89kGsHfToIIrJu-_Ogm1dbGCIhJOWiMOy8Zpsxd30TL6K8A30s3S0pB_2mqCIaYobITqzNJLDEQ8l7XrqSS4DQAbeBNtzBYL7sbd9oJrtSr0C6DVcm1vjb8tG2NNkkQRrg7E_dVMOCQFwOTEmZTpu0H2oETisNyMQFLJPVOIIsQ-wg9bPAbYodxaehYCMFYA9FVMcBSNKaA5Q7Glm6BVfVp5dLGbpWzcmANDKIcx9KHUXLOLPXxGX2Z-SwWvxcR4SzFfBLe2hL_A_W-0FixlRk-MtC8Agy7Het8ohmOHLOCBfjpYAb7IQNssAQwzGGbDzSl53dqWPnEqa2uD9fIie4QXrcE3PaNvI9eLjU9n63s_E0k29XnDzJ1xCYIZC8z_3jda4KKdpxO8jmGvyGYPRuWg9dUpvIucniVoDOXuUO1YHnX6I-vVVraN-Mz2YKGKi-VksMPryVU0LVg4wrABmK0f5XkY59cfW9efYeoKhuVl-MIculdipkLqyJAyLXIgbXoPjw_2ZJ-LfZMkqJZkUcRKng8Pwg-i5O9THce5Ptx6ioBczxTkkiT7twoL0jFAcmfvhPNwUm4OPdPJ3HgmMdcP0EKLpCB4BDLqjxOOpvf0jxwi2VJACFwsoNIfuduCqzXRF3tB2RyV_lX1QUW6_LRBsYoYTXXE5AaRke5KuPYytNczY4XmFH9XKupeJzOE3daUsqWOJaITXiVpMet9tPcCTwyivyKklS2qOoc2wgirptr6gvw9wmYPzhENOoQDp7evPX8y-l36uyUDAnnvpULnEGVSuC8O_x2CX6DAH4J6BDRcV5cspfzWByyLR66cAcYTu5DlfY7TzK_ff3gprmogoe5NuZnrAa6Lt95i2dXib6hY3CsHT8ezp3eB-QAST9OYGsk9JVX9MrR0k2-CJDHMcmXKCqPgwvRN7cNClZv3H3iLRMccAY7Cq9jSH0pJPLhyiUy3i74WUo_P21ep-0_gXgxJRXDkd5P9J6SW5GYTeMTLlC_Ozcd0oYq6XPh_FAS_V-viYnB2gefTm4vLTse5FfwqYRarBqGF1cHtSalFmumOM6btDxNQ7JcepEKpEegUxnwYcb51Pzvk1IefKMQiy6KAmsu0ZfstzYY3y6ADkhqF2QKEAPhjcKW1rXGHsOzh4gj7eF_MesfNPsdAwfAV4bipOxcpjfscmRMh5vNOfsW27tdv2c1_aSC8u59EH7xHa7u60sbKJXxjjjw-36_qmg5adED0DqgUWlBo9Df48u-b1S1Nt2NozFDCanQfQckZOkx2k8JSKLNwPZZhn_8p-L9kLiORDGEtGyUXw5gt2VU2ksJgANsoFGvWbBTZONAHr6JNyofO0k4vNZDAUVPs8v_m0OVEOrXJXcKf26vJqn7FqnAuB3DdkYsUP-3jzBuf_cbX0Oz8j3cTiXbUMiqHo2M4yRSAfJ0o18Jg2esAp0GaB-KMcWRXA1Ie_YzPT0fSynZubcl9qMPUQSISvYlo2WKefNlJ2yzGQ2-edM2n33BbWs5H-M9nnMpJfIiJxLomh1PFqfBkzcqyk9wCXNLOPNGrlRyVNYyc5RHJWG_I9kMGm_GV-Vh2zs7znP6s9oYfYfX9KwtJTR3KLk3ZLg7BBX5Xcr_qI0l9j5ogc0ZZn8WKckYZYTWDhWn8gol6dNU4oARLr3K8Dww6hyKSMjmrc6RfVWlmof1KeMVd7BL6ixV2wn0cRh2RzBboemIdxSnq62lVYBSmD3smSoSilSGEaonkQW_UihoiFOzdx9NKecIrAIlN5CifBohkYdkkcGiEIxqa0hqDzQPPz1xr14Qtw0chKvptkf-FBsU9sU3DMkHV2hM5P8iQrBfSFizdTPF51tnp15b-Tdft-IeV5hXVNTsyM3zE99XfGT7btZNkhKAEtmJICaWv1yBIqGQ8oNPHAafjVW2EJ-akURJWmV0gXSnxqli4WE-4VXjFvOlw0sai5Vwv_sU9LRjGH_xef4lRxLMmZXxT95n4kazeMIsdjx0RSLrcCwGgSDXvLs0q0RGSqbBf1qHTUG3pXRYEhxSPqs61HzTlaVKFb789GSthJy_bYzduo7rsfZPODny06nrkAi-SKF0KLlgsNDYWTUL2t4Ysqr4e7PiE7YyLqEDSOVXcroS8DFyMSisR1U1RQ3Nd_tWAzVtR0xfLhx9lS36TlLRZ__i__Slwlpr0QwkZprBgjsuxGoG8F9m7PIV4MyexKl7x5Qr6JIboWWYHjRMb89TWiAjoLsVFOZWM-vSRhldwYkJs2M7jSprM11wNkKznYtldI0VV5-iSKBDoTJodimleuoFOS-50U4T7F0Jn6-812ZLUq4-N-RLkbW-2XIbrtDn_mhl4bJRuEGTcoXnvOVLu1hJH1WTUbkiOd76TEEDrzlUn9cZYxxXEcLfwMyugPBxN0V5wQEqdjyh-MKTEmwaL61EVQTtTmImiQhlK2Eku4ha3vMEHzFtEZXDXFYOdq28dYjPU7D9410z2bcN-aZLDzEnihfhwAURh1eo2RKg-I57etl7uOBnvktzxUlR_bMvW04-BVm-3iu-Mb1ltsV10aHGjwdwwBVFNhqpF5PNqevJQl0gP2N1JFkHS6qNsR0qH7pfwmNVKiNUTHXc57lYQNGVicck71eXoTAfRJRTyN7QQheHufTkvXxs5r61rJrg043ZtSjL7IOGSXHxLcYtOe3zI9HD_fpUHsGPJkG0LJpTcc70qWMYmY13yxFLlr-r8MntwUudTA0D_Ek2b0SnILOqV3MSDFUtPKUA0d56ghtart-tG2XWkthC7D7wIzbcpIyjkrvnGEycezBwxOHsBRMjc8rqA74SkoDeig7R6B9IMdX93XIoHbUH4rT4-WtPGarak4uCmgWEQWUpVOITIqX1SEAUgKjMNWXxGLwvCqjD82xZt4gXmN7OUqnXhV8GUk7tripMDuV898hQtv8QyahBVAZwM5-yqJmr9FRcVpuUreREwlkFGfCRFomiQFEXsf3ODiCSoo2zP4QLOFFObv31PvAt9icXSdoAXi2IjNtJs-Wr6nItg_8ezb1tBFWEBH-d5PH5NYxKNmjhF-oB-9H0XK1PuzA2fdA3pCNoRt7txjAV-DNWwyDIycPPXQCJCuEdWKaGwB2WEYLUDUx5qEAZ77eovze6OEUzsmQPIaXPSGvr6UN5R5PXnLgpWF6VrHisAIxtfFHJXGHceA5oG5ZosCDSzMl3QbSMgKg53WKFNtOZZyQ_wYbNU7X8oowRAwdL3o_0nut_CfQJrPvwHOXRgWQuNfNqcbraOgN3oWGYsO0zxv-CwGBbN8TwDq2Yflq8pVZM_d-pu_Gy07IcQqUqxAFkfcfIbr3CtTNJU247jU3YVNumiJGVOHV9gC2TG0R7G78Jvln5iSR7rNZJP6UAhIgRMw5sgCr8sUDURfOlvx_pCK-yGgs_FM-djjljE6XvsdFY_0u_3dtl3O8PzTw9cr3giTKRJF7ywBVJixeSvajSD5E99qC2HYYzx4glCNt6PsYiLU1sPxE5yyePzY-Dmj3FMWXEVbflru2vMrVMK1__fu2KRa-pDQab59C3h5mnLB9nL_imxmdj4XJ_wK58zpgaQfk8TF2f8WEBbhbVldPz9XwEdxULwllavxIeEFmzLbUb-b3SFegcYRcph4h9E-mqDYHHJ0bsWCecX7NS4I2i3Td7yYhaRGWeOEkXgIq45-oXcnRZTdtpoD2NuWRgMDFDxWaTN2lSRytbpDWS_Rfa6Do_-Q5nfs0JcfsNlJKPftrddxN5N80wx2ZAaCRF9H3izC20tiT9WGH_Eble7hSKa1QxxMDd2zFqTP3Vjrpu7hELAPbL3X39_c9qguUTy057iKM4ITwxLjbKtAGJ1EqcRUlVKc4fXc6IKnrK8dsn0qUh90oW7mHiDFhEjrvushgdSDvdJPw4rLjAK9g5HzpgEjJuoLixXYBB_BdPfzsUHlDHWRNvJ6dyljRLpJf5Ecb0T1aY2xzPBqStu_PQDc_7wEc-7wVL0w2vQ6kgt75Qj3q_vtPb-hmVjBuEi-f8I6MYCEol65uwGChSTQP-gwyYviZyf4vDvQ2FD5MOVhhIK_UuMYFZ4uI_Ed7Lh51EUgXOH4Aj7nEZkFQdPgl2DhAbXyoz1-O8yko8tTJ-21vKfzTPlseooymT_AKteJtzDveXuGbbWJPdX4wwAAdh57_a9WNoAk4bBTb8vaeiRPR8hyz4tMWvGy8WQwUTzRw45SRoxGPAVY8DQm_v1rjlV4cnZCizj9btjjbra44CEcsAJnkOIZ3M2rBAIMXtArvbKKFqs04Xyx_uZVI-LOUYfflMR6guGgLloYDhWjj-PzrwPeeemeCgFGglPaZB_OiU6jpswIds39HRXT9eu3Cxdql_WUvJuFR1OvVwfGN93jXS9CfjAwYAkZffuLekjzAKU_hFlS3x9rs1LZoL3H364PRoxeRKQUNSNTAsIJgVto8xyJJ3eanBQngbME0v3kkzLCFo-fgNvwen8FthQLSR1wwxLNgNsd1N9VlXRqgkwMQESxDpOfddD-YA0hbuyaI4ZkC3IauOVvEcCoEKjywHiWtAVluq3alQTY04wzxlKZKHX6SbZrHVJkLfDUBG8ECEHYBA41mffVNdAGMGCkobAxfDRnfO18_8oYNaZjp_rkjtOQg2--jiuHkspTcevSlgcBJg6-eKmmiMyKWoo3JDupSbs5MtR9YxdVfLQOWC9bR4mZ9fucGGSIACCFpadZfvNA9nxUIMqkA4Y_PVLGwdDXa6GrcO5kbKJRxhD_Z-UT3ZMo2yamgAfqO3ieNoABiMUAmYCy0w_SIbfqbzIcJTbVJIDxwAnXleDom2rTINqAV0C406dY5h-h4BaFVkbN4zNE8kvw6Pho61eVExAaUnpTtZlTiLTljcZ9SmFwapEwF7ZUXDlzW87Lh_R2RUNAsPZCUyGRtk4xlYeUF1GOvZKuXs6Tb8va3WUPias1_saE63jFKWmGjjsk-PBlD12pOuvhNG1Y_B4AbP9qJif-xKrzssBJDinhBGKawOsmpRV3UjvjM6v_-WquRfQKyjaqlWqhxBaiasnnhHqc-t7lxErEK2Lbfnk62QnJPt6oOZsFrjQzV1iyR7gmG_M8jxpjYsaSVcH1E8PfeLlF6P150EjMbVhfhWFN3fwajbu0rQ9MJKnRqVmeCtyjm_KV6ld5oOdntn5n_LS815Gd-FeB-rXfgdJh8VNJqzVw4-FknvYmB_Tz73-yzK2I7rH_ACaFPxsMv0UrxDIsqNakomrXKSZt-Y42kXyYs_hE5MAmzSRJlgqjUkzig9Dz9xX5_Pqjh4NOsiAYjF603DRB5qYivr9mFFEP4YTGjzpzWmpkKXnEUp_WbNhNdpXSkLbYrhbktPim5dci0Um3FYQ8AU5cVJSlrorn9mu-G0SkNb25BZwO3Y_b7hMBf4gLQwPAjQ87ZHhhrh5Hxq55EQ2YtgaKH5FyBRFMBSOcr5QPDu4x5DLov4zhzOnBOauRO8F8xkqgTK6wkpLQ4-C2XjlgcAU4zuUIYsCV7_L9Y1lIUsnGEH9bBBjreC4fC4ueStBADhN1h4RDZeRMw4PzHovj_ulwjRQmR11hzye2SMrRkO2i_IeBoBLHPG6PkrGsoWQrB0193ojzxsgkfpniIRVhxQZRXjbh57rLRH1l9FqDwDHsa_qF
' URL: http://www.plantuml.com/plantuml/uml/tJrhS-F8ST-toly19N-1h8VbAyUvqFRcA8fQqQkNIMetYSl50e4XXHC8m7YiLZxVLNvBVbf-IRfx1eDvajpRFIVnbNqYPdfcUdhwFO_xfcwYgcatsQlwAStBg8esGPn5TJricYfTjWsRn4K-I__AWhDNZsd2WZYjueozUaLGmNdMigOeciTHaJTLaMMi2hvx5GGdtq77JHf_7yo7RmR133hBry7lWmD7WmE4Z-8c_P0sBuDWA7vXQScgJLhNQP5VHsqUFxAghv-okisQhlntV8W__VarjZk1VnqvXWhjOOw37pF88GvGiup5pGNxaCQi7kR936aP5lb5aRD1C6tpF5fcx70GV2ZI1D7A6KlgUpbS25NBeiXOb6DjnVxIihhHwxkczMFnp4UwIAEiM8S97tOGNATrypivLmxp-ZZOWaPR9b73pZlC_r0hGttVhUn3lJolYYY9exgvYl94hYpmGyC-DeDWn7zqPPp20spO4vo6gvTJ5hFq0zRAFhiYO8gSFTlbuM7mtSzU_Gmw289lxg2W0kxZdsMxpDAOy8LfYWQXG2U8ZuC9_CgR8AK_r4yW_W7a-Am3JZyOdKEThbbp7rKnov1OuuzD5OK0V1FbqPfLf-D_cq-7YulnkybeVFZRlZ_1sCXMHQvrDgIYK0LELq7O3GkpRhCi-DlVP5jUSjY3upyLQzegD_fGy1gEvfExsyN3x5mWjnZEvyFHrVZY5BWfokgGTt-eKG7_wPVibFC3fyiaNnK2IHNrxmEMrMptw1VZJnuT12j-6dy4BWPA2fRKoFOz_mb_lfUoxU3Eq6JCuy3BbYI-5Ll3eCXfKZIEsjmgLIN2r7Ajf0KD87wB6YJbd132VxzBsREAlgAKRCIThGbfDxMK2RZNSj1plW8CRDfZZRqeSr2dVL6XH7fLlC86z-FfpMGsWqzLwSV5vdITDe_jyZHFdzAoE6thkaXFzHPRxC1MEelrfnhnMoMqYRp31YZQN57ZKnObBqu5QcjgBvKb6Q-BECf0LnLLiij6Qg07FfrR2O11SCEIDEhWoMokaa70jTbbcW4tr76Lbar1bMdDGM4mQNvWr1M8AzEmggCFm49bsrocB4l0qipq0WsuhDWAGHwZYYNtyC4gbWDlofNG9XN6pKSv6Q8-j0VlWuNFQT8y3b2F7WUFB5q_Dk9ZLTRYrp85vTmm-W8opzfg5SMCbf1MJc7mkYbAzRk2DOvgfXOfv21sO8PLZYi6Wxq3urCWBUzN2LgNAeyo1FGHUTccMJ9ZtAierWXm6sseRxxE20JYTn6zpDhLAlqO9j6Bd167aAm3topQGD4uZml9FOn_YEKVmU-ObXSNID149GwWj895GPsWDZazbyNaPY05MQ9HeEw6rqfFVhfLIr2yMY8Mdt5o2NufstD1owYjcIIP3bot6tTLpPfpZc08tiYvZgkYBYSATKDb6dAjL8HfdOv07qVWzxo0nqMa9XoR-W48anN424TFx8KQM0J-GUqkJDHkm6zjH1V7mTDADZtiSHb1eohQrpCteRsA9oR02w7nHieNhot1PM62zxlwaLQAS8z_SJ5fvYpb8yuVOU601aB7yy--Mfe1nGO0Py6YJQDyZPum_laTIY_OZjS1zxSuAdTv1gu-ANN4c70LtnpW-YzRgjDwPea8TDzKhOBzACgoPHG_wHGx1MFJiAvE-C9-WBsTuhkIvIm9lxajyblqCzKk0uwGvfEfQmfOy4_51-DQK2oVzCw-tmkNYxG6Dih1k7uwHgTnLg1uVzA0uwegggqZ7QDa1mpXzXgqTpnDAR4jMTGqKVnuzSTEIzG6GoiAXODUxmFAbIJ7Rv9qSaiAridUYhTYh5rV4PLbzdAFCNyTai52wT7P6ym3bN-sVjNrDhSpN89jHvkq7UzcN-NbR7AWjKXp-9KZTPt0sxNTI8aaJ1OWlQLwDmFTsTDiwBYpsgPHHwXdKEZlsN9Mn4-iKTGOnFjhtkrwBNm7tc6d4djTcEPfaqPP-jUzZBZB5pJAEN_CMADxHMq5_bqpClXHKQhSFNql7GEe-jM_V7NMLrtrVWBMdNrDTLT_L8qlLFpJukpi3F_VpyBPAQzoTtfjTTftsNaeKCexMe8_ST_RPoW_-PN6I5VZuSLukfXD_cCi1mgEWg_tDpYeIKwSN6Yh4paiUH-SXNKeFqCV8JU4DPVyj-obMoP54A7Nkx99Dr5sAJI9GybutJi-tKj1maDpoiGfBt76EZwn_D-hg4gUmOESjMLPeESvPNMHjPGwiV60kEkzWWfyAkkDNGFR4o-mveyj247JQJTJaRfqr4bIHMakf54j9zLu7w5CXYlkffd2UwhwQHW_W9lsfpyBnz8G9R-phBh8gkiCyqGgwCuepKDs7JfXTiGsHmteaup7Dk47_BUizGtA6eBkV6KTOsSJFWPd07KTHe_8AaGm2gW-G42rKhzkQhEhc9e80tLPL9kesIVoSA45EeWp0WoLnimqLSCi4pMrRPwkO9JB-zcdUTTQeo_hMXUW5P1rMOA3p4h6aly_xZPchqKEM_SyNXkEztR07IxuOqSOr12zdlZ7ySpbol_3k-ZW0vso4AJhk0jPET0WE00ZpE5_-oaUlKUS_rwElMhVLVcDbYaOi1GKa8h8SM1QHUZAsOnycpHFpa54983FmDTIBFQnwTvWP6itUZXYCwmHbqY0_uC1YfFWFDjJTuwCPcYHCBNGEwOT-H7HZcYvRxopRI2V9NfqIyN0P_r--Y1eTyX1BemU77p50m2gqME3V_xA7MzyhSORsm87dS6XxZTdMqoD9_xoH6k-k6ol6CGNmFX2Hef6jl78ZmjATd3T7h69fRwGc0wrKz9sGyKIDJYGXSuGuUyU1kpXhN-oDwwvraulLm--F1AancJeuSyvOz_FmXqXo1VqntTkmsptrpypiFZKi4Qgy4sz9ewen8uag6rPzuvLoDeZtB3TfT1rs0FfcqXuslRj5b10zm8GBz4iSaTKMNtPUiKQy4PWHdNNLW_4UvjHtx9dLdL06JLHnk7ZAupJhH3C6ey-a7CZKQ4v_u0RgNY89kGsHfToIIrJu-_Ogm1dbGCIhJOWiMOy8Zpsxd30TL6K8A30s3S0pB_2mqCIaYobITqzNJLDEQ8l7XrqSS4DQAbeBNtzBYL7sbd9oJrtSr0C6DVcm1vjb8tG2NNkkQRrg7E_dVMOCQFwOTEmZTpu0H2oETisNyMQFLJPVOIIsQ-wg9bPAbYodxaehYCMFYA9FVMcBSNKaA5Q7Glm6BVfVp5dLGbpWzcmANDKIcx9KHUXLOLPXxGX2Z-SwWvxcR4SzFfBLe2hL_A_W-0FixlRk-MtC8Agy7Het8ohmOHLOCBfjpYAb7IQNssAQwzGGbDzSl53dqWPnEqa2uD9fIie4QXrcE3PaNvI9eLjU9n63s_E0k29XnDzJ1xCYIZC8z_3jda4KKdpxO8jmGvyGYPRuWg9dUpvIucniVoDOXuUO1YHnX6I-vVVraN-Mz2YKGKi-VksMPryVU0LVg4wrABmK0f5XkY59cfW9efYeoKhuVl-MIculdipkLqyJAyLXIgbXoPjw_2ZJ-LfZMkqJZkUcRKng8Pwg-i5O9THce5Ptx6ioBczxTkkiT7twoL0jFAcmfvhPNwUm4OPdPJ3HgmMdcP0EKLpCB4BDLqjxOOpvf0jxwi2VJACFwsoNIfuduCqzXRF3tB2RyV_lX1QUW6_LRBsYoYTXXE5AaRke5KuPYytNczY4XmFH9XKupeJzOE3daUsqWOJaITXiVpMet9tPcCTwyivyKklS2qOoc2wgirptr6gvw9wmYPzhENOoQDp7evPX8y-l36uyUDAnnvpULnEGVSuC8O_x2CX6DAH4J6BDRcV5cspfzWByyLR66cAcYTu5DlfY7TzK_ff3gprmogoe5NuZnrAa6Lt95i2dXib6hY3CsHT8ezp3eB-QAST9OYGsk9JVX9MrR0k2-CJDHMcmXKCqPgwvRN7cNClZv3H3iLRMccAY7Cq9jSH0pJPLhyiUy3i74WUo_P21ep-0_gXgxJRXDkd5P9J6SW5GYTeMTLlC_Ozcd0oYq6XPh_FAS_V-viYnB2gefTm4vLTse5FfwqYRarBqGF1cHtSalFmumOM6btDxNQ7JcepEKpEegUxnwYcb51Pzvk1IefKMQiy6KAmsu0ZfstzYY3y6ADkhqF2QKEAPhjcKW1rXGHsOzh4gj7eF_MesfNPsdAwfAV4bipOxcpjfscmRMh5vNOfsW27tdv2c1_aSC8u59EH7xHa7u60sbKJXxjjjw-36_qmg5adED0DqgUWlBo9Df48u-b1S1Nt2NozFDCanQfQckZOkx2k8JSKLNwPZZhn_8p-L9kLiORDGEtGyUXw5gt2VU2ksJgANsoFGvWbBTZONAHr6JNyofO0k4vNZDAUVPs8v_m0OVEOrXJXcKf26vJqn7FqnAuB3DdkYsUP-3jzBuf_cbX0Oz8j3cTiXbUMiqHo2M4yRSAfJ0o18Jg2esAp0GaB-KMcWRXA1Ie_YzPT0fSynZubcl9qMPUQSISvYlo2WKefNlJ2yzGQ2-edM2n33BbWs5H-M9nnMpJfIiJxLomh1PFqfBkzcqyk9wCXNLOPNGrlRyVNYyc5RHJWG_I9kMGm_GV-Vh2zs7znP6s9oYfYfX9KwtJTR3KLk3ZLg7BBX5Xcr_qI0l9j5ogc0ZZn8WKckYZYTWDhWn8gol6dNU4oARLr3K8Dww6hyKSMjmrc6RfVWlmof1KeMVd7BL6ixV2wn0cRh2RzBboemIdxSnq62lVYBSmD3smSoSilSGEaonkQW_UihoiFOzdx9NKecIrAIlN5CifBohkYdkkcGiEIxqa0hqDzQPPz1xr14Qtw0chKvptkf-FBsU9sU3DMkHV2hM5P8iQrBfSFizdTPF51tnp15b-Tdft-IeV5hXVNTsyM3zE99XfGT7btZNkhKAEtmJICaWv1yBIqGQ8oNPHAafjVW2EJ-akURJWmV0gXSnxqli4WE-4VXjFvOlw0sai5Vwv_sU9LRjGH_xef4lRxLMmZXxT95n4kazeMIsdjx0RSLrcCwGgSDXvLs0q0RGSqbBf1qHTUG3pXRYEhxSPqs61HzTlaVKFb789GSthJy_bYzduo7rsfZPODny06nrkAi-SKF0KLlgsNDYWTUL2t4Ysqr4e7PiE7YyLqEDSOVXcroS8DFyMSisR1U1RQ3Nd_tWAzVtR0xfLhx9lS36TlLRZ__i__Slwlpr0QwkZprBgjsuxGoG8F9m7PIV4MyexKl7x5Qr6JIboWWYHjRMb89TWiAjoLsVFOZWM-vSRhldwYkJs2M7jSprM11wNkKznYtldI0VV5-iSKBDoTJodimleuoFOS-50U4T7F0Jn6-812ZLUq4-N-RLkbW-2XIbrtDn_mhl4bJRuEGTcoXnvOVLu1hJH1WTUbkiOd76TEEDrzlUn9cZYxxXEcLfwMyugPBxN0V5wQEqdjyh-MKTEmwaL61EVQTtTmImiQhlK2Eku4ha3vMEHzFtEZXDXFYOdq28dYjPU7D9410z2bcN-aZLDzEnihfhwAURh1eo2RKg-I57etl7uOBnvktzxUlR_bMvW04-BVm-3iu-Mb1ltsV10aHGjwdwwBVFNhqpF5PNqevJQl0gP2N1JFkHS6qNsR0qH7pfwmNVKiNUTHXc57lYQNGVicck71eXoTAfRJRTyN7QQheHufTkvXxs5r61rJrg043ZtSjL7IOGSXHxLcYtOe3zI9HD_fpUHsGPJkG0LJpTcc70qWMYmY13yxFLlr-r8MntwUudTA0D_Ek2b0SnILOqV3MSDFUtPKUA0d56ghtart-tG2XWkthC7D7wIzbcpIyjkrvnGEycezBwxOHsBRMjc8rqA74SkoDeig7R6B9IMdX93XIoHbUH4rT4-WtPGarak4uCmgWEQWUpVOITIqX1SEAUgKjMNWXxGLwvCqjD82xZt4gXmN7OUqnXhV8GUk7tripMDuV898hQtv8QyahBVAZwM5-yqJmr9FRcVpuUreREwlkFGfCRFomiQFEXsf3ODiCSoo2zP4QLOFFObv31PvAt9icXSdoAXi2IjNtJs-Wr6nItg_8ezb1tBFWEBH-d5PH5NYxKNmjhF-oB-9H0XK1PuzA2fdA3pCNoRt7txjAV-DNWwyDIycPPXQCJCuEdWKaGwB2WEYLUDUx5qEAZ77eovze6OEUzsmQPIaXPSGvr6UN5R5PXnLgpWF6VrHisAIxtfFHJXGHceA5oG5ZosCDSzMl3QbSMgKg53WKFNtOZZyQ_wYbNU7X8oowRAwdL3o_0nut_CfQJrPvwHOXRgWQuNfNqcbraOgN3oWGYsO0zxv-CwGBbN8TwDq2Yflq8pVZM_d-pu_Gy07IcQqUqxAFkfcfIbr3CtTNJU247jU3YVNumiJGVOHV9gC2TG0R7G78Jvln5iSR7rNZJP6UAhIgRMw5sgCr8sUDURfOlvx_pCK-yGgs_FM-djjljE6XvsdFY_0u_3dtl3O8PzTw9cr3giTKRJF7ywBVJixeSvajSD5E99qC2HYYzx4glCNt6PsYiLU1sPxE5yyePzY-Dmj3FMWXEVbflru2vMrVMK1__fu2KRa-pDQab59C3h5mnLB9nL_imxmdj4XJ_wK58zpgaQfk8TF2f8WEBbhbVldPz9XwEdxULwllavxIeEFmzLbUb-b3SFegcYRcph4h9E-mqDYHHJ0bsWCecX7NS4I2i3Td7yYhaRGWeOEkXgIq45-oXcnRZTdtpoD2NuWRgMDFDxWaTN2lSRytbpDWS_Rfa6Do_-Q5nfs0JcfsNlJKPftrddxN5N80wx2ZAaCRF9H3izC20tiT9WGH_Eble7hSKa1QxxMDd2zFqTP3Vjrpu7hELAPbL3X39_c9qguUTy057iKM4ITwxLjbKtAGJ1EqcRUlVKc4fXc6IKnrK8dsn0qUh90oW7mHiDFhEjrvushgdSDvdJPw4rLjAK9g5HzpgEjJuoLixXYBB_BdPfzsUHlDHWRNvJ6dyljRLpJf5Ecb0T1aY2xzPBqStu_PQDc_7wEc-7wVL0w2vQ6kgt75Qj3q_vtPb-hmVjBuEi-f8I6MYCEol65uwGChSTQP-gwyYviZyf4vDvQ2FD5MOVhhIK_UuMYFZ4uI_Ed7Lh51EUgXOH4Aj7nEZkFQdPgl2DhAbXyoz1-O8yko8tTJ-21vKfzTPlseooymT_AKteJtzDveXuGbbWJPdX4wwAAdh57_a9WNoAk4bBTb8vaeiRPR8hyz4tMWvGy8WQwUTzRw45SRoxGPAVY8DQm_v1rjlV4cnZCizj9btjjbra44CEcsAJnkOIZ3M2rBAIMXtArvbKKFqs04Xyx_uZVI-LOUYfflMR6guGgLloYDhWjj-PzrwPeeemeCgFGglPaZB_OiU6jpswIds39HRXT9eu3Cxdql_WUvJuFR1OvVwfGN93jXS9CfjAwYAkZffuLekjzAKU_hFlS3x9rs1LZoL3H364PRoxeRKQUNSNTAsIJgVto8xyJJ3eanBQngbME0v3kkzLCFo-fgNvwen8FthQLSR1wwxLNgNsd1N9VlXRqgkwMQESxDpOfddD-YA0hbuyaI4ZkC3IauOVvEcCoEKjywHiWtAVluq3alQTY04wzxlKZKHX6SbZrHVJkLfDUBG8ECEHYBA41mffVNdAGMGCkobAxfDRnfO18_8oYNaZjp_rkjtOQg2--jiuHkspTcevSlgcBJg6-eKmmiMyKWoo3JDupSbs5MtR9YxdVfLQOWC9bR4mZ9fucGGSIACCFpadZfvNA9nxUIMqkA4Y_PVLGwdDXa6GrcO5kbKJRxhD_Z-UT3ZMo2yamgAfqO3ieNoABiMUAmYCy0w_SIbfqbzIcJTbVJIDxwAnXleDom2rTINqAV0C406dY5h-h4BaFVkbN4zNE8kvw6Pho61eVExAaUnpTtZlTiLTljcZ9SmFwapEwF7ZUXDlzW87Lh_R2RUNAsPZCUyGRtk4xlYeUF1GOvZKuXs6Tb8va3WUPias1_saE63jFKWmGjjsk-PBlD12pOuvhNG1Y_B4AbP9qJif-xKrzssBJDinhBGKawOsmpRV3UjvjM6v_-WquRfQKyjaqlWqhxBaiasnnhHqc-t7lxErEK2Lbfnk62QnJPt6oOZsFrjQzV1iyR7gmG_M8jxpjYsaSVcH1E8PfeLlF6P150EjMbVhfhWFN3fwajbu0rQ9MJKnRqVmeCtyjm_KV6ld5oOdntn5n_LS815Gd-FeB-rXfgdJh8VNJqzVw4-FknvYmB_Tz73-yzK2I7rH_ACaFPxsMv0UrxDIsqNakomrXKSZt-Y42kXyYs_hE5MAmzSRJlgqjUkzig9Dz9xX5_Pqjh4NOsiAYjF603DRB5qYivr9mFFEP4YTGjzpzWmpkKXnEUp_WbNhNdpXSkLbYrhbktPim5dci0Um3FYQ8AU5cVJSlrorn9mu-G0SkNb25BZwO3Y_b7hMBf4gLQwPAjQ87ZHhhrh5Hxq55EQ2YtgaKH5FyBRFMBSOcr5QPDu4x5DLov4zhzOnBOauRO8F8xkqgTK6wkpLQ4-C2XjlgcAU4zuUIYsCV7_L9Y1lIUsnGEH9bBBjreC4fC4ueStBADhN1h4RDZeRMw4PzHovj_ulwjRQmR11hzye2SMrRkO2i_IeBoBLHPG6PkrGsoWQrB0193ojzxsgkfpniIRVhxQZRXjbh57rLRH1l9FqDwDHsa_qF
' Generated on: 2026-02-23T15:05:59.785785

@startuml
skinparam classAttributeIconSize 0
hide circle

class BluetoothController {
  -{static} TAG: String = "BluetoothController"
  -activity: Activity
  -permissionLauncher: ActivityResultLauncher<String[]>
  --
  +BluetoothController(activity: Activity, permissionLauncher: ActivityResultLauncher<String[]>)
  +selectDevicesAndStart(onDone: Runnable): void
  -needsPermission(): boolean
  -requestPermission(): void
  -showDeviceDialog(devices: List<BluetoothDevice>, onDone: Runnable): void
  -updateBtDevicesJson(): void
}

class UsbBroadcastHandler {
  -context: Context
  -controller: UsbController
  -usbReceiver: BroadcastReceiver = new BroadcastReceiver() {

    @Override
    public void onReceive(Context c, Intent intent) {
        UsbDevice device = intent.getParcelableExtra(UsbManager.EXTRA_DEVICE);
        String action = intent.getAction();
        if (device == null || action == null)
            return;
        if (UsbManager.ACTION_USB_DEVICE_ATTACHED.equals(action)) {
            controller.updateDeviceInfo(device);
        } else if (UsbManager.ACTION_USB_DEVICE_DETACHED.equals(action)) {
            controller.checkExistingDevices();
        }
    }
}
  --
  +UsbBroadcastHandler(context: Context, controller: UsbController)
  +register(): void
  +unregister(): void
}

class UsbController {
  -usbManager: UsbManager
  -usbInfoText: TextView
  --
  +UsbController(context: Context, usbInfoText: TextView)
  +checkExistingDevices(): void
  +updateDeviceInfo(device: UsbDevice): void
  +getUsbManager(): UsbManager
}

class UsbDriverController {
  -{static} ACTION_USB_PERMISSION: String = "com.github.nikipo.ussoi.USB_PERMISSION"
  -activity: Activity
  -usbManager: UsbManager
  -usbHandler: UsbHandler
  --
  +UsbDriverController(activity: Activity)
  +selectAndStart(onReady: Runnable): void
  -requestPermission(device: UsbDevice): void
}

class LocalRecorder {
  -{static} TAG: String = "LocalRecorder"
  -context: Context
  -recorder: MediaRecorder
  -pfd: ParcelFileDescriptor
  -isRecording: boolean = false
  -{static} saveInputFields: SaveInputFields
  -{static} prefs: SharedPreferences
  --
  +LocalRecorder(ctx: Context)
  +prepare(width: int, height: int, fps: int, bitrate: int): Surface
  +start(): void
  +stop(): void
  +release(): void
  +isRecordingActive(): boolean
  -createVideoFilePfdInternal(): ParcelFileDescriptor
  -buildSessionLogFileName(): String
  -getDaySuffix(day: int): String
}

class StreamingEncoder {
  -encoder: MediaCodec
  -inputSurface: Surface
  -bufferInfo: MediaCodec.BufferInfo
  -started: boolean
  -streaming: boolean
  --
  +prepare(width: int, height: int, fps: int, bitrate: int): Surface
  +start(): void
  +dequeue(): EncodedFrame
  +stop(): void
  +release(): void
  +pauseStreaming(): void
  +resumeStreaming(): void
  +setBitrate(newBitrate: int): void
  +getInputSurface(): Surface
}

class EncodedFrame {
  +data: ByteBuffer
  +ptsUs: long
  +keyFrame: boolean
  --
  ~EncodedFrame(d: ByteBuffer, pts: long, kf: boolean)
}

class CameraController {
  -{static} TAG: String = "CameraController"
  -context: Context
  -cameraDevice: CameraDevice
  -captureSession: CameraCaptureSession
  -hqSurface: Surface
  -lqSurface: Surface
  -cameraThread: HandlerThread
  -cameraHandler: Handler
  -targetRange: Range<Integer> = null
  -hqOnlyRequest: CaptureRequest
  -hqLqRequest: CaptureRequest
  -isStreaming: boolean = true
  -cameraCallback: CameraDevice.StateCallback = new CameraDevice.StateCallback() {

    @Override
    public void onOpened(@NonNull CameraDevice camera) {
        cameraDevice = camera;
        createSession();
    }

    @Override
    public void onDisconnected(@NonNull CameraDevice camera) {
        camera.close();
    }

    @Override
    public void onError(@NonNull CameraDevice camera, int error) {
        camera.close();
    }
}
  --
  +CameraController(ctx: Context)
  +attachHQSurface(surface: Surface): void
  +attachLQSurface(surface: Surface): void
  +start(cameraId: String, fpsRange: Range<Integer>): void
  -createSession(): void
  -applyParams(builder: CaptureRequest.Builder): void
  +pauseStreaming(): void
  +resumeStreaming(): void
  +stop(): void
  -startThread(): void
}

class FrameStreamController {
  -{static} TAG: String = "FrameStreamController"
  -{static} instance: FrameStreamController
  -context: Context
  -cameraController: CameraController
  -localRecorder: LocalRecorder
  -streamingEncoder: StreamingEncoder
  -ws: WebSocketHandler
  -logger: Logging
  -streamThread: Thread
  -initialized: boolean
  -streaming: boolean
  -isRecording: boolean
  -isRecordingParamsSet: boolean
  -currentCameraId: String = null
  -recordWidth: int = 1920
  -recordHeight: int = 1080
  -HQBitrate: int = 5_000_000
  -streamWidth: int = 1920
  -streamHeight: int = 1080
  -LQBitrate: int = 500_000
  -fps: int = 20
  -basePtsUs: long = -1
  -{static} HEADER_SIZE: int = 1 + 8
  -targetRange: Range<Integer> = null
  --
  -FrameStreamController(ctx: Context)
  +{static} getInstance(ctx: Context): FrameStreamController
  +init(sessionKey: String): void
  -getOptimalFpsRange(cameraId: String, width: int, height: int, targetFps: int): Range<Integer>
  -cycleCameraId(): String
  -getHardwareSupportedResolution(cameraId: String, reqWidth: int, reqHeight: int): Size
  -setQualityParams(): void
  +startStreaming(): void
  -drainEncoder(): void
  -buildPacket(frame: StreamingEncoder.EncodedFrame): byte[]
  +setRecordingParams(width: int, height: int, bitrate: int, fps: int, reqId: int): void
  +startRecording(reqId: int): void
  +isRecordingActive(): boolean
  +toggleVideo(video: boolean, reqId: int): void
  +setVideoBitrate(bitrate: int, reqId: int): void
  +toggleCamera(): void
  +ChangeFrameInterval(frameIntervalMs: int): void
  +changeCaptureFormat(width: int, height: int, fps: int, reqId: int): void
  -restartService(): void
  +stopAllServices(): void
}

class HighFPSCameraController {
  -{static} TAG: String = "HighFPSCamera"
  -context: Context
  -cameraDevice: CameraDevice
  -captureSession: CameraConstrainedHighSpeedCaptureSession
  -hqSurface: Surface
  -lqSurface: Surface
  -cameraThread: HandlerThread
  -cameraHandler: Handler
  -targetRange: Range<Integer> = null
  -hqOnlyRequestList: List<CaptureRequest>
  -hqLqRequestList: List<CaptureRequest>
  -isStreaming: boolean = true
  -highSpeedSize: Size
  -cameraCallback: CameraDevice.StateCallback = new CameraDevice.StateCallback() {

    @Override
    public void onOpened(@NonNull CameraDevice camera) {
        cameraDevice = camera;
        createHighSpeedSession();
    }

    @Override
    public void onDisconnected(@NonNull CameraDevice camera) {
        camera.close();
    }

    @Override
    public void onError(@NonNull CameraDevice camera, int error) {
        Log.e(TAG, "Camera error: " + error);
        camera.close();
    }
}
  --
  +HighFPSCameraController(ctx: Context)
  +attachHQSurface(surface: Surface): void
  +attachLQSurface(surface: Surface): void
  +{static} getHighSpeedCapabilities(ctx: Context, cameraId: String): HighSpeedCapabilities
  -findBestHighSpeedRange(cameraId: String, size: Size, targetFps: int): Range<Integer>
  +start(cameraId: String, size: Size, targetFps: int): void
  -createHighSpeedSession(): void
  -applyHighSpeedParams(builder: CaptureRequest.Builder): void
  +pauseStreaming(): void
  +resumeStreaming(): void
  +stop(): void
  -startThread(): void
}

class HighSpeedCapabilities {
  +supported: boolean
  +sizes: Size
}

class HighFPSFrameStreamController {
  -{static} TAG: String = "HighFPSStreamController"
  -{static} instance: HighFPSFrameStreamController
  -context: Context
  -highFPSCameraController: HighFPSCameraController
  -localRecorder: LocalRecorder
  -streamingEncoder: StreamingEncoder
  -ws: WebSocketHandler
  -currentCameraId: String = null
  -videoWidth: int = 1280
  -videoHeight: int = 720
  -HQBitrate: int = 8_000_000
  -LQBitrate: int = 500_000
  -targetFps: int = 60
  -highSpeedSize: Size
  -streaming: boolean
  -initialized: boolean
  -isRecording: boolean
  -{static} HEADER_SIZE: int = 1 + 8
  -basePtsUs: long = -1
  -streamThread: Thread
  --
  -HighFPSFrameStreamController(ctx: Context)
  +{static} getInstance(ctx: Context): HighFPSFrameStreamController
  +init(sessionKey: String): void
  -findBestHighSpeedSize(cameraId: String, preferredWidth: int, preferredHeight: int): Size
  +startStreaming(): void
  -drainEncoder(): void
  -buildPacket(frame: StreamingEncoder.EncodedFrame): byte[]
  +startRecording(reqId: int): void
  +toggleVideo(video: boolean, reqId: int): void
  +toggleCamera(reqId: int): void
  -cycleCameraId(currentCameraId: String): String
  +setTargetFPS(fps: int, reqId: int): void
  +changeCaptureFormat(width: int, height: int, fps: int, reqId: int): void
  +isRecordingActive(): boolean
  -restartService(): void
  +stop(): void
  +ChangeFrameInterval(frameIntervalMs: int): void
  +setVideoBitrate(bitrate: int, reqId: int): void
}

class msgPackerManager {
}

class VersionChecker {
  -{static} TAG: String = "VersionChecker"
  --
  +{static} check(currentVersion: String, cb: Callback): void
  -{static} fetchLatestVersion(): String
  -{static} isNewerVersion(latest: String, current: String): boolean
}

interface Callback {
  ~onResult(text: String): void
}

class WebSocketHandler {
  -{static} TAG: String = "ConnHandle"
  -mainHandler: Handler = new Handler(Looper.getMainLooper())
  -client: OkHttpClient
  -callback: MessageCallback
  -logging: Logging
  -webSocket: WebSocket
  -isManualClose: boolean = false
  -isConnected: boolean = false
  -reconnectAttempts: long = 0
  -prefs: SharedPreferences
  -currentUrlPath: String
  -currentSessionKey: String
  --
  +WebSocketHandler(context: Context, callback: MessageCallback)
  +setupConnection(urlPath: String, sessionKey: String): void
  -connect(): void
  -initiateReconnect(): void
  -{static} normalizeUrl(inputUrl: String): String
  +connSendPayload(payload: JSONObject): void
  +connSendPayloadBytes(serialBytesReceived: byte[]): void
  +closeConnection(): void
  +isConnected(): boolean
}

interface MessageCallback {
  ~onOpen(): void
  ~onPayloadReceivedText(payload: String): void
  ~onPayloadReceivedByte(payload: byte[]): void
  ~onClosed(): void
  ~onError(error: String): void
}

class AuthLogin {
  -{static} TAG: String = "AuthLogin"
  -logging: Logging
  -{static} JSON: MediaType = MediaType.get("application/json; charset=utf-8")
  -client: OkHttpClient = new OkHttpClient()
  --
  +login(logging: Logging, roomId: String, roomPwd: String, LOGIN_URL: String, callback: LoginCallback): void
  +{static} normalizeUrl(inputUrl: String): String
}

interface LoginCallback {
  ~onSuccess(sessionKey: String): void
  ~onFailure(error: String): void
}

class ConnManager {
  -{static} TAG: String = "ControlConnectionManager"
  -context: Context
  -wsUrl: String
  -{static} instance: ConnManager
  -impClientInfoSender: ImpClientInfoSender
  -webSocketHandler: WebSocketHandler
  -clientInfoProvider: ClientInfoProvider
  -prefs: SharedPreferences
  -saveInputFields: SaveInputFields
  -logger: Logging
  ~{static} KEY_Session_KEY: String = "sessionKey"
  --
  -ConnManager(ctx: Context, url: String)
  +{static} getInstance(ctx: Context, url: String): ConnManager
  +getWebSocketHandlerObject(): WebSocketHandler
  +connect(): void
  +send(obj: JSONObject): void
  +stopAllServices(): void
}

class ImpClientInfoSender {
  -webSocketHandler: WebSocketHandler
  -clientInfoProvider: ClientInfoProvider
  -sender: ConnManager
  -running: boolean = false
  -worker: Thread
  -logger: Logging
  --
  ~ImpClientInfoSender(handler: WebSocketHandler, provider: ClientInfoProvider, connManager: ConnManager, logger: Logging)
  +startSending(): void
  +stopSending(): void
}

class ConnRouter {
  -{static} TAG: String = "ControlMessageRouter"
  -{static} isParamsReceived: boolean
  -{static} connManager: ConnManager
  -{static} saveInputFields: SaveInputFields
  -{static} prefs: SharedPreferences
  -{static} ctx: Context
  -{static} usbHandler: UsbHandler
  -{static} bluetoothHandler: BluetoothHandler
  -{static} logger: Logging
  -{static} deviceInfo: DeviceInfo
  --
  +{static} init(sender: ConnManager, context: Context): void
  +{static} stopAllServices(): void
  +{static} route(json: JSONObject): void
  -{static} handleStreamLogic(json: JSONObject): void
  +{static} getClientStat(): char
  -{static} handelUartTunnel(json: JSONObject): void
  -{static} setUpConfigParams(json: JSONObject): void
  -{static} initUartTunnel(): void
  -{static} getUserParams(): JSONObject
  -{static} getHighSpeedVideoResolutionsJson(): JSONObject
  -{static} getJsonArray(map: StreamConfigurationMap): JSONArray
  -{static} getNormalVideoResolutionsJson(): JSONObject
  -{static} getJsonObject(size: Size, fpsRanges: Range<Integer>[]): JSONObject
  -{static} hasHighFpsCamera(): boolean
  +{static} sendAck(type: String, reqId: int, msg: String): void
}

class StreamRoute {
  -{static} TAG: String = "StreamRoute"
  -{static} webRtcHandler: WebRtcHandler
  -{static} frameStreamController: FrameStreamController
  -{static} highFPSFrameStreamController: HighFPSFrameStreamController
  -{static} prefs: SharedPreferences
  -{static} logger: Logging
  -{static} context: Context
  -{static} stream: boolean = false
  -{static} record: boolean = false
  --
  +{static} init(ctx: Context): void
  +{static} initWebrtc(webSocketHandler: WebSocketHandler): void
  +{static} initMse(): void
  +{static} initMseHighFps(): void
  +{static} isRecording(): boolean
  +{static} stopStream(): void
  +{static} isStreamRunning(): boolean
  +{static} webrtcControl(json: JSONObject, prefs: SharedPreferences): void
  +{static} mseControl(json: JSONObject, prefs: SharedPreferences): void
  +{static} mseHighFpsControl(json: JSONObject, prefs: SharedPreferences): void
  -{static} deleteSmallFilesSaf(): void
  -{static} deleteSmallFilesLegacy(): void
}

class ServiceManager {
  -mDispatcher: ServiceLifecycleDispatcher = new ServiceLifecycleDispatcher(this)
  -TAG: String = "ServiceManager"
  -wakeLock: PowerManager.WakeLock
  -prefs: SharedPreferences
  -saveInputFields: SaveInputFields
  -logger: Logging
  +{static} isRunning: boolean = false
  -connectionManager: ConnManager
  --
  +onCreate(): void
  +onStartCommand(intent: Intent, flags: int, startId: int): int
  -initiateConnection(): void
  +onDestroy(): void
  +onBind(intent: Intent): IBinder
  +getLifecycle(): Lifecycle
}

class ServiceNotificationHelper {
  +{static} NOTIFICATION_CHANNEL_ID: String = "StreamingServiceChannel"
  +{static} NOTIFICATION_ID: int = 1
  --
  +{static} createNotification(ctx: Context): Notification
  -{static} createNotificationChannel(ctx: Context): void
}

class Logging {
  -{static} TAG: String = "Logging"
  -{static} instance: Logging
  -logDir: DocumentFile
  -logFile: DocumentFile
  -context: Context
  -sessionLogFileName: String
  -logExecutor: ExecutorService
  --
  -Logging(context: Context)
  +{static} getInstance(context: Context): Logging
  +{static} getIfInitialized(): Logging
  -initializeLogging(): void
  +log(message: String): void
  -buildSessionLogFileName(): String
  -getDaySuffix(day: int): String
  +closeLogging(): void
}

class SaveInputFields {
  -{static} instance: SaveInputFields
  -prefs: SharedPreferences
  +{static} selectedBtDevices: List<BluetoothDevice> = new ArrayList<>()
  +{static} btDevices: JSONObject = new JSONObject()
  ~{static} PREFS_NAME: String = "UsbAppPrefs"
  +{static} USSOI_version: String = "2.0.1"
  +{static} PREF_LOG_URI: String = "LOG_FOLDER_URI"
  +{static} KEY_url: String = "ip"
  +{static} KEY_api_path: String = "control/client"
  +{static} streamingUrl: String = "mse/client"
  +{static} UART_TUNNEL: String = "ws/uartunnel?mode=fc"
  +{static} KEY_turn_array: String = "turnArray"
  +{static} KEY_webrtc_Enable: String = "webrtc"
  +{static} KEY_mse_Enable: String = "mse"
  +{static} KEY_mse_high_fps_Enable: String = "mse_high_fps"
  +{static} KEY_local_recording: String = "localRecording"
  +{static} KEY_BT_SWITCH: String = "btEnable"
  +{static} KEY_USB_Switch: String = "usb"
  +{static} KEY_LocalVideoBitrate: String = "localVideoBitrate"
  +{static} KEY_BAUD_RATE: String = "baud_rate"
  +{static} KEY_RoomID: String = "roomId"
  +{static} KEY_RoomPWD: String = "roomPwd"
  +{static} KEY_Session_KEY: String = "sessionKey"
  +{static} MASK: String = "••••••••"
  --
  -SaveInputFields(context: Context)
  +{static} getInstance(context: Context): SaveInputFields
  +saveCredentials(roomId: String, roomPwd: String): void
  +get_shared_pref(): SharedPreferences
}

class StorageController {
  -{static} TAG: String = "StorageController"
  -activity: Activity
  -saveInputFields: SaveInputFields
  -logging: Logging
  -pref: SharedPreferences
  -folderPickerLauncher: ActivityResultLauncher<Intent>
  --
  +StorageController(activity: Activity, saveInputFields: SaveInputFields, launcher: ActivityResultLauncher<Intent>)
  +init(): boolean
  -hasPersistedPermission(uri: Uri): boolean
  -createUssoiFolders(treeUri: Uri): void
  -showLogFolderNote(): void
  -launchPicker(): void
  +onFolderPicked(treeUri: Uri): void
}

class ClientInfoProvider {
  -TAG: String = "ClientInfoProvider"
  -{static} instance: ClientInfoProvider
  -context: Context
  -batteryManager: BatteryManager
  -locationManager: LocationManager
  -telephonyManager: TelephonyManager
  -powerManager: PowerManager
  -myUid: int
  -lastTxBytes: long = 0
  -lastRxBytes: long = 0
  -lastTimestamp: long = 0
  -{static} VALUE_UNKNOWN: byte = (byte) 0xFF
  -{static} KB: double = 1024.0
  -sessionUploadBytes: double = 0
  -sessionDownloadBytes: double = 0
  -lastKnownLocation: Location
  -lastSignalStrength: SignalStrength
  -modernListener: MySignalStrengthListener
  -legacyListener: PhoneStateListener
  -locationListener: LocationListener
  -lastCharge_uAh: int = Integer.MIN_VALUE
  -lastBatteryTempC: float = 0.0f
  --
  -ClientInfoProvider(context: Context)
  +{static} getInstance(context: Context): ClientInfoProvider
  +startMonitoring(): void
  +stopMonitoring(): void
  -startLocationUpdates(): void
  -startSignalStrengthListener(): void
  -initializeNetworkStats(): void
  +getClientStats(): String
  -{static} bytesToHex(bytes: byte[]): String
  -getCellularSignalStrengthDbm(): int
  -getAppDataConsumptionMb(): double
  -getThermalStatus(): byte
  -getBatteryTemperatureLegacy(): float
  -getWifiSignalDbm(): int
  -isWifiConnected(): boolean
}

class MySignalStrengthListener {
  +onSignalStrengthsChanged(signalStrength: SignalStrength): void
}

class DeviceInfo {
  -{static} INSTANCE: DeviceInfo
  -context: Context
  --
  -DeviceInfo(ctx: Context)
  +{static} getInstance(ctx: Context): DeviceInfo
  +getAllDetailsAsJson(): JSONObject
  -getDeviceIdentity(): JSONObject
  -getCpuInfo(): JSONObject
  -getPerCoreFrequency(): JSONArray
  -getDashboardInfo(): JSONObject
  -getNetworkInfo(): JSONObject
  +stopAllServices(): void
  -getProcessorName(): String
  -getAnyIPv4(): String
  -getAnyIPv6(): String
  -intToIp(i: int): String
  -formatSize(s: long): String
  -readOneLine(path: String): String
  -getLteRadioInfo(): JSONObject
  -getBandFromEarfcn(earfcn: int): int
}

class PermissionControl {
  +{static} required(c: Context): String[]
  -{static} add(c: Context, list: List<String>, perm: String): void
}

class PowerController {
  -activity: Activity
  --
  +PowerController(activity: Activity)
  +isIgnoringBatteryOptimizations(): boolean
  +requestIgnoreBatteryOptimization(): void
}

class UsbAttachReceiver {
  +{static} ACTION_USB_EVENT: String = "com.github.nikipo.ussoi.USB_EVENT"
  --
  +onReceive(context: Context, intent: Intent): void
}

class BluetoothHandler {
  +{static} ACTION_BT_FAILED: String = "com.example.ussoi.BT_CONNECTION_FAILED"
  -{static} TAG: String = "BtHandel"
  -context: Context
  -device: BluetoothDevice
  -connection: Connection
  -webSocketHandler: WebSocketHandler
  -saveInputFields: SaveInputFields
  -isRunning: boolean = false
  --
  +BluetoothHandler(context: Context)
  -showToast(message: String): void
  +setDevice(device: BluetoothDevice): void
  +setupConnection(): void
  -connectToDevice(device: BluetoothDevice): void
  -setupBluetoothListener(): void
  +isRunning(): boolean
  +stopAllServices(): void
  -stopByUser(): void
}

class UsbHandler {
  -{static} TAG: String = "UsbHandler"
  -{static} instance: UsbHandler
  -prefs: SharedPreferences
  -saveInputFields: SaveInputFields
  -{static} usbManager: UsbManager
  -webSocketHandler: WebSocketHandler
  -readThread: Thread
  -reading: boolean = false
  -usbLock: Object = new Object()
  -context: Context
  -logging: Logging
  -driver: UsbSerialDriver
  -port: UsbSerialPort
  -timeOut: int = 100
  --
  -UsbHandler(context: Context)
  +{static} getInstance(context: Context): UsbHandler
  -showToast(message: String): void
  +setupConnection(): void
  -{static} usbWriteTimeoutMs(baud: int): int
  +setDriver(d: UsbSerialDriver): void
  +clearDriver(): void
  +isRunning(): boolean
  -startReading(port: UsbSerialPort): void
  -stopReading(): void
  +stopAllServices(): void
}

class ServiceController {
  -{static} TAG: String = "ServiceController"
  -appContext: Context
  --
  +ServiceController(context: Context)
  +start(serviceButton: Button): void
  +stop(serviceButton: Button): void
  +isRunning(): boolean
}

class MainActivity {
  -{static} TAG: String = "MainActivity"
  -serviceController: ServiceController
  -StorageController: StorageController
  -usbBroadcastHandler: UsbBroadcastHandler
  -usbDriverController: UsbDriverController
  -bluetoothController: BluetoothController
  -powerController: PowerController
  -saveInputFields: SaveInputFields
  -logging: Logging
  -pref: SharedPreferences
  -usbInfoText: TextView
  -versionTextField: TextView
  -urlIp: EditText
  -roomId: EditText
  -roomPwd: EditText
  -serviceButton: Button
  -radioUsb: MaterialButton
  -radioBt: MaterialButton
  -connectionToggleGroup: MaterialButtonToggleGroup
  -permissionLauncher: ActivityResultLauncher<String[]>
  -keepScreenOn: boolean = false
  -btnKeepScreenOn: MaterialButton
  --
  #onCreate(savedInstanceState: Bundle): void
  #onResume(): void
  #onStop(): void
  -initUi(): void
  -setViews(): void
  -setupListeners(): void
  -restoreUiState(): void
  -handleServiceToggle(): void
  -updateServiceButtonState(isRunning: boolean): void
  -setupPermissionLauncher(): void
  -showBatteryOptimizationNote(): void
}

class MediaRecorderSink {
  -{static} TAG: String = "MediaRecorderSink"
  -sharedContext: EglBase.Context
  -context: Context
  -fd: FileDescriptor
  -videoEncoder: MediaCodec
  -audioEncoder: MediaCodec
  -muxer: MediaMuxer
  -encoderInputSurface: Surface
  -encoderEgl: EglBase
  -frameDrawer: VideoFrameDrawer
  -drawer: RendererCommon.GlDrawer
  -processingThread: HandlerThread
  -processingHandler: Handler
  -audioRecord: AudioRecord
  -audioThread: Thread
  -audioRunning: boolean
  -isRunning: boolean = false
  -recordingFlag: AtomicBoolean = new AtomicBoolean(false)
  -videoTrackIndex: int = -1
  -audioTrackIndex: int = -1
  -muxerStarted: boolean = false
  -startTimeNs: long = -1
  -totalAudioSamples: long = 0
  -{static} saveInputFields: SaveInputFields
  -{static} prefs: SharedPreferences
  -pfd: ParcelFileDescriptor
  --
  +MediaRecorderSink(sharedContext: EglBase.Context, ctx: Context)
  -createVideoFilePfdInternal(): ParcelFileDescriptor
  -buildSessionLogFileName(): String
  -getDaySuffix(day: int): String
  +start(): void
  +stop(): void
  +onFrame(frame: VideoFrame): void
  -startAudioCapture(): void
  -initEncoders(width: int, height: int): void
  -drawVideoFrame(frame: VideoFrame): void
  -feedAudioEncoder(pcmData: byte[], sampleRate: int): void
  -drainCodec(codec: MediaCodec, endOfStream: boolean): void
  -releaseResources(): void
  +isRecordingActive(): boolean
}

class RotatingCapturerObserver {
  -downstreamObserver: CapturerObserver
  -rotationAngle: int
  --
  +RotatingCapturerObserver(downstreamObserver: CapturerObserver, initialRotation: int)
  +setRotation(angle: int): void
  -normalize(angle: int): int
  +onCapturerStarted(success: boolean): void
  +onCapturerStopped(): void
  +onFrameCaptured(frame: VideoFrame): void
}

class WebRtcHandler {
  -{static} TAG: String = "WebRtcHandler"
  -{static} instance: WebRtcHandler
  -context: Context
  -gson: Gson = new Gson()
  -factory: PeerConnectionFactory
  -peerConnection: PeerConnection
  -rootEgl: EglBase
  -surfaceTextureHelper: SurfaceTextureHelper
  -localVideoTrack: VideoTrack
  -localAudioTrack: AudioTrack
  -videoCapturer: VideoCapturer
  -cameraVideoCapturer: CameraVideoCapturer
  -mediaRecorder: MediaRecorderSink
  -prefs: SharedPreferences
  -saveInputFields: SaveInputFields
  -webSocketHandler: WebSocketHandler
  -rotatingCapturerObserver: RotatingCapturerObserver
  -videoSender: RtpSender
  -audioSender: RtpSender
  -executor: ExecutorService = Executors.newSingleThreadExecutor()
  -currentRotation: int = 0
  -isRecording: boolean = false
  --
  -WebRtcHandler(context: Context, webSocketHandler: WebSocketHandler)
  +{static} getInstance(context: Context, webSocketHandler: WebSocketHandler): WebRtcHandler
  +init(): void
  -createPeerConnection(): void
  +startStream(width: int, height: int, fps: int): void
  -createCameraCapturer(context: Context): VideoCapturer
  +createOffer(): void
  +handleAnswer(sdp: String): void
  +handleRemoteIceCandidate(json: JSONObject): void
  +changeCaptureFormat(width: int, height: int, fps: int, reqId: int): void
  +rotateOutgoingVideo(): void
  +switchCamera(): void
  +toggleVideo(muteStream: boolean): void
  +toggleAudio(unmuteStream: boolean): void
  +setVideoBitrate(bitratebps: int, reqId: int): void
  -getSdpConstraints(): MediaConstraints
  +startLocalRecording(reqId: int): void
  +isRecordingActive(): boolean
  +stopAllServices(): void
}

class SdpObserverAdapter {
  -logTag: String
  --
  +SdpObserverAdapter(tag: String)
  +onCreateSuccess(s: SessionDescription): void
  +onSetSuccess(): void
  +onCreateFailure(s: String): void
  +onSetFailure(s: String): void
}

class WebrtcDataChannel {
}

UsbBroadcastHandler *-- UsbController
UsbDriverController *-- UsbHandler
LocalRecorder *-- SaveInputFields
StreamingEncoder ..> EncodedFrame
FrameStreamController *-- FrameStreamController
FrameStreamController *-- CameraController
FrameStreamController *-- LocalRecorder
FrameStreamController *-- StreamingEncoder
FrameStreamController *-- WebSocketHandler
FrameStreamController *-- Logging
FrameStreamController ..> EncodedFrame
HighFPSCameraController ..> HighSpeedCapabilities
HighFPSFrameStreamController *-- HighFPSFrameStreamController
HighFPSFrameStreamController *-- HighFPSCameraController
HighFPSFrameStreamController *-- LocalRecorder
HighFPSFrameStreamController *-- StreamingEncoder
HighFPSFrameStreamController *-- WebSocketHandler
HighFPSFrameStreamController ..> EncodedFrame
VersionChecker ..> Callback
WebSocketHandler *-- MessageCallback
WebSocketHandler *-- Logging
AuthLogin *-- Logging
AuthLogin ..> LoginCallback
ConnManager *-- ConnManager
ConnManager *-- ImpClientInfoSender
ConnManager *-- WebSocketHandler
ConnManager *-- ClientInfoProvider
ConnManager *-- SaveInputFields
ConnManager *-- Logging
ImpClientInfoSender *-- WebSocketHandler
ImpClientInfoSender *-- ClientInfoProvider
ImpClientInfoSender *-- ConnManager
ImpClientInfoSender *-- Logging
ConnRouter *-- ConnManager
ConnRouter *-- SaveInputFields
ConnRouter *-- UsbHandler
ConnRouter *-- BluetoothHandler
ConnRouter *-- Logging
ConnRouter *-- DeviceInfo
StreamRoute *-- WebRtcHandler
StreamRoute *-- FrameStreamController
StreamRoute *-- HighFPSFrameStreamController
StreamRoute *-- Logging
StreamRoute ..> WebSocketHandler
ServiceManager *-- SaveInputFields
ServiceManager *-- Logging
ServiceManager *-- ConnManager
Logging *-- Logging
SaveInputFields *-- SaveInputFields
StorageController *-- SaveInputFields
StorageController *-- Logging
ClientInfoProvider *-- ClientInfoProvider
ClientInfoProvider *-- MySignalStrengthListener
DeviceInfo *-- DeviceInfo
BluetoothHandler *-- WebSocketHandler
BluetoothHandler *-- SaveInputFields
UsbHandler *-- UsbHandler
UsbHandler *-- SaveInputFields
UsbHandler *-- WebSocketHandler
UsbHandler *-- Logging
MainActivity *-- ServiceController
MainActivity *-- StorageController
MainActivity *-- UsbBroadcastHandler
MainActivity *-- UsbDriverController
MainActivity *-- BluetoothController
MainActivity *-- PowerController
MainActivity *-- SaveInputFields
MainActivity *-- Logging
MediaRecorderSink *-- SaveInputFields
WebRtcHandler *-- WebRtcHandler
WebRtcHandler *-- MediaRecorderSink
WebRtcHandler *-- SaveInputFields
WebRtcHandler *-- WebSocketHandler
WebRtcHandler *-- RotatingCapturerObserver
@enduml